<svg xmlns="http://www.w3.org/2000/svg" viewBox="0 0 48 48">
  <!-- Outer ring segments -->
  <path d="M24 4 A20 20 0 0 1 38 10 L30 17 A10 10 0 0 0 24 14z" fill="#e05030"/>
  <path d="M38 10 A20 20 0 0 1 44 24 L34 24 A10 10 0 0 0 30 17z" fill="#e08030"/>
  <path d="M44 24 A20 20 0 0 1 38 38 L30 31 A10 10 0 0 0 34 24z" fill="#e0a020"/>
  <path d="M38 38 A20 20 0 0 1 24 44 L24 34 A10 10 0 0 0 30 31z" fill="#30a040"/>
  <path d="M24 44 A20 20 0 0 1 10 38 L18 31 A10 10 0 0 0 24 34z" fill="#208060"/>
  <path d="M10 38 A20 20 0 0 1 4 24 L14 24 A10 10 0 0 0 18 31z" fill="#2050a0"/>
  <path d="M4 24 A20 20 0 0 1 10 10 L18 17 A10 10 0 0 0 14 24z" fill="#4030a0"/>
  <path d="M10 10 A20 20 0 0 1 24 4 L24 14 A10 10 0 0 0 18 17z" fill="#c030a0"/>
  <!-- Inner ring segments -->
  <path d="M24 14 A10 10 0 0 1 30 17 L27 20.5 A4 4 0 0 0 24 19z" fill="#b03020"/>
  <path d="M30 17 A10 10 0 0 1 34 24 L29 24 A4 4 0 0 0 27 20.5z" fill="#c07020"/>
  <path d="M34 24 A10 10 0 0 1 30 31 L27 27.5 A4 4 0 0 0 29 24z" fill="#c09010"/>
  <path d="M30 31 A10 10 0 0 1 24 34 L24 29 A4 4 0 0 0 27 27.5z" fill="#208830"/>
  <path d="M24 34 A10 10 0 0 1 18 31 L21 27.5 A4 4 0 0 0 24 29z" fill="#106848"/>
  <path d="M18 31 A10 10 0 0 1 14 24 L19 24 A4 4 0 0 0 21 27.5z" fill="#1840a0"/>
  <path d="M14 24 A10 10 0 0 1 18 17 L21 20.5 A4 4 0 0 0 19 24z" fill="#302080"/>
  <path d="M18 17 A10 10 0 0 1 24 14 L24 19 A4 4 0 0 0 21 20.5z" fill="#a02080"/>
  <!-- Crosshair lines -->
  <line x1="24" y1="0" x2="24" y2="48" stroke="#222" stroke-width="2.5"/>
  <line x1="0" y1="24" x2="48" y2="24" stroke="#222" stroke-width="2.5"/>
  <line x1="24" y1="0" x2="24" y2="48" stroke="#222" stroke-width="2.5"/>
  <!-- Border circles -->
  <circle cx="24" cy="24" r="20" fill="none" stroke="#222" stroke-width="2.5"/>
  <circle cx="24" cy="24" r="10" fill="none" stroke="#222" stroke-width="2"/>
  <circle cx="24" cy="24" r="4" fill="none" stroke="#222" stroke-width="1.5"/>
</svg>
