<svg xmlns="http://www.w3.org/2000/svg" viewBox="0 0 48 48">
  <rect x="2" y="2" width="44" height="44" rx="2" fill="#c87830"/>
  <path d="M2 4h44v12H2z" fill="#d08838"/>
  <path d="M2 4 L8 10 L14 4 L20 10 L26 4 L32 10 L38 4 L44 10 L46 4" stroke="#222" stroke-width="2.5" fill="none"/>
  <path d="M2 16 L8 22 L14 16 L20 22 L26 16 L32 22 L38 16 L44 22 L46 16" stroke="#222" stroke-width="2.5" fill="none"/>
  <rect x="2" y="16" width="44" height="14" fill="#b06828" opacity="0.7"/>
  <path d="M2 30 L8 36 L14 30 L20 36 L26 30 L32 36 L38 30 L44 36 L46 30" stroke="#222" stroke-width="2.5" fill="none"/>
  <rect x="2" y="30" width="44" height="16" fill="#8a5018" opacity="0.6"/>
  <rect x="10" y="6" width="3" height="3" fill="#333" rx="0.5"/>
  <rect x="28" y="8" width="3" height="3" fill="#333" rx="0.5"/>
  <rect x="36" y="5" width="2.5" height="2.5" fill="#333" rx="0.5"/>
  <rect x="18" y="20" width="3" height="3" fill="#333" rx="0.5"/>
  <rect x="34" y="22" width="3" height="3" fill="#333" rx="0.5"/>
  <rect x="8" y="24" width="2.5" height="2.5" fill="#333" rx="0.5"/>
  <polygon points="12,38 16,34 20,38 16,42" fill="#5a3510" stroke="#222" stroke-width="1.5"/>
  <polygon points="28,36 31,33 34,37 30,40" fill="#5a3510" stroke="#222" stroke-width="1.5"/>
  <polygon points="38,40 41,37 43,41" fill="#5a3510" stroke="#222" stroke-width="1.5"/>
  <polygon points="8,42 10,38 13,43" fill="#5a3510" stroke="#222" stroke-width="1.5"/>
</svg>
