<svg xmlns="http://www.w3.org/2000/svg" viewBox="0 0 48 48">
  <defs>
    <linearGradient id="fg" x1="0.5" y1="1" x2="0.5" y2="0">
      <stop offset="0%" stop-color="#f5f5f0"/>
      <stop offset="20%" stop-color="#ffd54f"/>
      <stop offset="50%" stop-color="#ff9800"/>
      <stop offset="80%" stop-color="#f4511e"/>
      <stop offset="100%" stop-color="#e64a19"/>
    </linearGradient>
  </defs>
  <path d="M24 2c0 0-4 6-6 12c-1 3 0 5 2 6c-4 0-8 4-9 10c-1 8 5 16 13 16s14-5 14-13c0-6-3-10-6-13c1 3-1 6-3 7c2-5 1-12-2-16c-1 3-3 5-5 5c2-5 2-10 2-14z" fill="url(#fg)"/>
  <ellipse cx="14" cy="8" rx="2.5" ry="3.5" fill="#f4511e" transform="rotate(-20 14 8)"/>
  <ellipse cx="36" cy="10" rx="2" ry="3" fill="#f4511e" transform="rotate(15 36 10)"/>
  <ellipse cx="32" cy="4" rx="1.5" ry="2.5" fill="#e64a19" transform="rotate(10 32 4)"/>
</svg>
